<svg version="1.1" id="Capa_1" xmlns="http://www.w3.org/2000/svg" xmlns:xlink="http://www.w3.org/1999/xlink" x="0px" y="0px" viewBox="0 0 512 512" style="enable-background:new 0 0 512 512;" xml:space="preserve">
<g>
	<g>
		<path style="fill-rule:evenodd;clip-rule:evenodd;fill:#E3EDF6;" d="M136.883,324.008c-27.666,0-51.826,15.049-64.736,37.408&#10;&#9;&#9;&#9;c-29.787,1.302-53.538,25.859-53.538,55.967c0,30.942,25.084,56.025,56.025,56.025h77.598c-0.007-0.275-0.01-0.55-0.01-0.827&#10;&#9;&#9;&#9;c0-17.624,14.294-31.918,31.918-31.918c0-20.967,19.855-36.072,39.894-30.912c5.393-9.722,13.249-17.889,22.726-23.656&#10;&#9;&#9;&#9;c-6.294-17.571-25.329-28.501-44.511-23.562C189.505,339.562,165.008,324.008,136.883,324.008z"/>
		<path style="fill-rule:evenodd;clip-rule:evenodd;fill:#E3EDF6;" d="M246.758,386.096c-9.476,5.768-17.332,13.935-22.725,23.657&#10;&#9;&#9;&#9;c-20.039-5.16-39.894,9.945-39.894,30.912c-17.624,0-31.918,14.294-31.918,31.918c0,0.276,0.003,0.552,0.01,0.827&#10;&#9;&#9;&#9;c0.439,17.242,14.561,31.091,31.907,31.091h148.946c26.441,0,47.876-21.435,47.876-47.876c0-25.728-20.296-46.714-45.75-47.827&#10;&#9;&#9;&#9;c-11.032-19.107-31.678-31.967-55.32-31.967C267.759,376.83,256.417,380.217,246.758,386.096z"/>
		<path style="fill-rule:evenodd;clip-rule:evenodd;fill:#E3EDF6;" d="M330.865,352.749c0,13.378,10.851,24.229,24.228,24.229&#10;&#9;&#9;&#9;h113.064c20.071,0,36.342-16.271,36.342-36.343c0-19.53-15.407-35.461-34.729-36.305c-8.375-14.504-24.046-24.266-41.993-24.266&#10;&#9;&#9;&#9;c-18.244,0-34.135,10.089-42.401,24.992c-15.212-3.917-30.283,7.549-30.283,23.465&#10;&#9;&#9;&#9;C341.715,328.521,330.865,339.372,330.865,352.749z"/>
		<path style="fill-rule:evenodd;clip-rule:evenodd;fill:#E3EDF6;" d="M344.587,273.497c49.279,0,89.23-39.95,89.23-89.23&#10;&#9;&#9;&#9;c0-47.513-37.389-87.045-85.268-89.138c-21.348-36.973-60.59-59.579-103.104-59.579c-44.793,0-83.81,24.771-104.105,61.361&#10;&#9;&#9;&#9;c-37.349-9.616-74.353,18.534-74.353,57.613c-32.846,0-59.486,26.64-59.486,59.486c0,32.846,26.641,59.486,59.486,59.486H344.587z&#10;&#9;&#9;&#9;"/>
		<path style="fill-rule:evenodd;clip-rule:evenodd;fill:#E3EDF6;" d="M348.548,95.129c41.021,1.793,74.855,31.279,83.26,70.228&#10;&#9;&#9;&#9;h33.227c21.79,0,39.464-17.674,39.464-39.464c0-21.791-17.673-39.464-39.464-39.464c0-25.925-24.549-44.601-49.327-38.221&#10;&#9;&#9;&#9;C402.244,23.934,376.36,7.5,346.643,7.5c-26.782,0-50.452,13.348-64.72,33.75C310.237,50.364,333.924,69.802,348.548,95.129z"/>
		<path style="fill-rule:evenodd;clip-rule:evenodd;fill:#A9C5DF;" d="M348.548,95.129c41.021,1.793,74.855,31.279,83.26,70.228&#10;&#9;&#9;&#9;h22.902c-8.028-46.979-45.444-84.222-93.045-91.517c-15.788-22.732-37.669-40.063-62.721-50.295&#10;&#9;&#9;&#9;c-6.551,4.978-12.301,10.954-17.022,17.704C310.237,50.364,333.924,69.802,348.548,95.129z"/>
		<path style="fill-rule:evenodd;clip-rule:evenodd;fill:#A9C5DF;" d="M61.519,154.777C31.234,157.539,7.5,183.008,7.5,214.01&#10;&#9;&#9;&#9;c0,32.846,26.641,59.486,59.486,59.486h22.5C56.641,273.497,30,246.856,30,214.01C30,192.18,43.094,168.325,61.519,154.777z"/>
		<path style="fill-rule:evenodd;clip-rule:evenodd;fill:#A9C5DF;" d="M70.49,361.516c-29.006,2.121-51.881,26.32-51.881,55.868&#10;&#9;&#9;&#9;c0,30.942,25.084,56.025,56.025,56.025h22.5c-30.941,0-56.025-25.5-56.025-56.025C41.109,395.596,52.905,373.09,70.49,361.516z"/>
		<path style="fill-rule:evenodd;clip-rule:evenodd;fill:#A9C5DF;" d="M182.408,440.712c-16.819,0.9-30.187,14.828-30.187,31.87&#10;&#9;&#9;&#9;c0,17.621,14.292,31.917,31.918,31.917h22.5C170.727,504.5,165.526,456.164,182.408,440.712z"/>
		<path style="fill-rule:evenodd;clip-rule:evenodd;fill:#A9C5DF;" d="M330.865,352.749c0,13.378,10.851,24.229,24.228,24.229h22.5&#10;&#9;&#9;&#9;c-25.687,0-37.984-33.005-26.651-48.101C339.541,330.846,330.865,340.787,330.865,352.749z"/>
	</g>
	<g>
		<path style="fill-rule:evenodd;clip-rule:evenodd;fill:none;stroke:#000000;stroke-width:15;stroke-miterlimit:22.9256;" d="&#10;&#9;&#9;&#9;M431.803,165.357h33.233c21.79,0,39.464-17.674,39.464-39.464c0-21.791-17.673-39.464-39.464-39.464&#10;&#9;&#9;&#9;c0-25.925-24.549-44.601-49.327-38.221C402.244,23.934,376.36,7.5,346.643,7.5c-26.782,0-50.452,13.348-64.722,33.753"/>
		<path style="fill-rule:evenodd;clip-rule:evenodd;fill:none;stroke:#000000;stroke-width:15;stroke-miterlimit:22.9256;" d="&#10;&#9;&#9;&#9;M274.046,80.55v-15 M304.046,95.55v-15"/>
		<path style="fill-rule:evenodd;clip-rule:evenodd;fill:none;stroke:#000000;stroke-width:15;stroke-miterlimit:22.9256;" d="&#10;&#9;&#9;&#9;M246.759,386.097c-6.294-17.571-25.329-28.501-44.511-23.562c-12.743-22.973-37.24-38.527-65.365-38.527&#10;&#9;&#9;&#9;c-27.666,0-51.826,15.049-64.736,37.408c-29.787,1.302-53.538,25.859-53.538,55.967c0,30.942,25.084,56.025,56.025,56.025h77.598"/>
		<path style="fill-rule:evenodd;clip-rule:evenodd;fill:none;stroke:#000000;stroke-width:15;stroke-miterlimit:22.9256;" d="&#10;&#9;&#9;&#9;M303.085,504.5H184.139c-17.623,0-31.918-14.294-31.918-31.917s14.294-31.918,31.918-31.918c0-20.967,19.855-36.072,39.894-30.912&#10;&#9;&#9;&#9;c10.89-19.632,31.824-32.923,55.858-32.923c23.642,0,44.288,12.86,55.32,31.967c25.455,1.113,45.75,22.098,45.75,47.827&#10;&#9;&#9;&#9;c0,26.441-21.435,47.876-47.876,47.876h-15"/>
		<path style="fill-rule:evenodd;clip-rule:evenodd;fill:none;stroke:#000000;stroke-width:15;stroke-miterlimit:22.9256;" d="&#10;&#9;&#9;&#9;M355.093,376.978c-13.378,0-24.228-10.85-24.228-24.229c0-13.378,10.85-24.228,24.228-24.228&#10;&#9;&#9;&#9;c0-15.916,15.071-27.382,30.283-23.465c8.266-14.902,24.157-24.992,42.401-24.992c17.947,0,33.619,9.762,41.993,24.266&#10;&#9;&#9;&#9;c19.322,0.844,34.729,16.775,34.729,36.305c0,20.071-16.271,36.343-36.342,36.343H355.093z"/>
		<path style="fill-rule:evenodd;clip-rule:evenodd;fill:none;stroke:#000000;stroke-width:15;stroke-miterlimit:22.9256;" d="&#10;&#9;&#9;&#9;M262.76,303.496h67.499 M180.261,303.496h67.5"/>
		
			<line style="fill-rule:evenodd;clip-rule:evenodd;fill:none;stroke:#000000;stroke-width:15;stroke-miterlimit:22.9256;" x1="229.01" y1="333.496" x2="281.51" y2="333.496"/>
		
			<line style="fill-rule:evenodd;clip-rule:evenodd;fill:none;stroke:#000000;stroke-width:15;stroke-miterlimit:22.9256;" x1="404.408" y1="414.477" x2="479.407" y2="414.477"/>
		
			<line style="fill-rule:evenodd;clip-rule:evenodd;fill:none;stroke:#000000;stroke-width:15;stroke-miterlimit:22.9256;" x1="419.408" y1="444.477" x2="456.907" y2="444.477"/>
		
			<line style="fill-rule:evenodd;clip-rule:evenodd;fill:none;stroke:#000000;stroke-width:15;stroke-miterlimit:22.9256;" x1="22.5" y1="303.496" x2="82.499" y2="303.496"/>
		
			<line style="fill-rule:evenodd;clip-rule:evenodd;fill:none;stroke:#000000;stroke-width:15;stroke-miterlimit:22.9256;" x1="30" y1="333.496" x2="52.5" y2="333.496"/>
		
			<line style="fill-rule:evenodd;clip-rule:evenodd;fill:none;stroke:#000000;stroke-width:15;stroke-miterlimit:22.9256;" x1="411.908" y1="474.476" x2="434.408" y2="474.476"/>
		<path style="fill-rule:evenodd;clip-rule:evenodd;fill:none;stroke:#000000;stroke-width:15;stroke-miterlimit:22.9256;" d="&#10;&#9;&#9;&#9;M191.825,48.301c16.113-8.154,34.33-12.75,53.62-12.75c44.064,0,82.542,23.968,103.104,59.579&#10;&#9;&#9;&#9;c47.441,2.073,85.268,41.186,85.268,89.138c0,49.28-39.95,89.23-89.23,89.23h-277.6c-32.845,0-59.486-26.64-59.486-59.486&#10;&#9;&#9;&#9;c0-32.846,26.64-59.486,59.486-59.486c0-39.078,37.005-67.229,74.353-57.613c9.045-16.307,21.811-30.263,37.147-40.728"/>
	</g>
</g>
<g>
</g>
<g>
</g>
<g>
</g>
<g>
</g>
<g>
</g>
<g>
</g>
<g>
</g>
<g>
</g>
<g>
</g>
<g>
</g>
<g>
</g>
<g>
</g>
<g>
</g>
<g>
</g>
<g>
</g>
</svg>