<svg clip-rule="evenodd" fill-rule="evenodd" height="512" image-rendering="optimizeQuality" shape-rendering="geometricPrecision" text-rendering="geometricPrecision" viewBox="0 0 1707 1707" width="512" xmlns="http://www.w3.org/2000/svg"><g id="Layer_x0020_1"><path d="m572 516c40 4 77 21 107 45l33-33-25-93c-3-11 3-22 14-25s22 4 25 14l19 72 17-18 31-117c3-10 14-17 25-14 10 3 17 14 14 25l-24 89 89-24c11-3 21 3 24 14s-3 21-14 24l-117 32-17 17 71 19c11 3 17 14 14 24-3 11-14 17-24 14l-94-25-33 33c25 30 41 67 45 108h47l48-84c5-9 18-13 27-7 10 5 13 17 7 27l-36 64h24l105-61c9-5 22-2 27 8 6 9 2 21-7 27l-80 46 80 46c9 5 13 18 7 27-5 10-18 13-27 7l-105-60h-24l36 64c6 9 3 21-7 27-9 5-22 2-27-7l-48-84h-47c-4 40-20 78-45 107l33 33 94-25c10-3 21 4 24 14 3 11-3 22-14 25l-71 19 17 17 117 31c11 3 17 14 14 25-3 10-13 17-24 14l-89-24 24 89c3 11-4 22-14 25-11 2-22-4-25-15l-31-117-17-17-19 71c-3 11-14 17-25 14-11-2-17-13-14-24l25-93-33-33c-30 24-67 40-107 44v47l83 48c10 6 13 18 8 27-6 10-18 13-28 8l-63-37v24l60 105c6 10 2 22-7 27-10 6-22 3-27-7l-46-80-46 80c-6 10-18 13-28 7-9-5-12-17-7-27l61-105v-24l-64 37c-10 5-22 2-27-8-6-9-3-21 7-27l84-48v-47c-41-4-78-20-108-44l-33 33 25 93c3 11-3 22-14 24-10 3-21-3-24-14l-19-71-18 17-31 117c-3 11-14 17-24 15-11-3-17-14-15-25l24-89-89 24c-10 3-21-4-24-14-3-11 3-22 14-25l117-31 17-17-71-19c-10-3-17-14-14-25 3-10 14-17 25-14l93 25 33-33c-25-29-41-67-45-107h-46l-49 84c-5 9-17 12-27 7-9-6-13-18-7-27l37-64h-25l-105 60c-9 6-21 3-27-7-5-9-2-22 7-27l80-46-80-46c-9-6-12-18-7-27 6-10 18-13 27-8l105 61h25l-37-64c-6-10-2-22 7-27 10-6 22-2 27 7l49 84h46c4-41 20-78 45-108l-33-33-93 25c-11 3-22-3-25-14-3-10 4-21 14-24l71-19-17-17-117-32c-11-3-17-13-14-24s14-17 24-14l89 24-24-89c-2-11 4-22 15-25 10-3 21 4 24 14l31 117 18 18 19-72c3-10 14-17 24-14 11 3 17 14 14 25l-25 93 33 33c30-24 67-41 108-45v-46l-84-48c-10-6-13-18-7-28 5-9 17-12 27-7l64 37v-24l-61-105c-5-10-2-22 7-28 10-5 22-2 28 8l46 79 46-79c5-10 17-13 27-8 9 6 13 18 7 28l-60 105v24l63-37c10-5 22-2 28 7 5 10 2 22-8 28l-83 48zm832-463c32 33 53 79 53 128v352h101c11 0 20 9 20 20s-9 20-20 20h-101v100h130c11 0 20 9 20 20s-9 20-20 20h-130v100h99c11 0 20 9 20 20s-9 20-20 20h-99v101h130c11 0 20 9 20 20s-9 20-20 20h-130v130c41 29 75 66 99 110 68 124 45 279-55 379-124 124-327 124-451 0-101-100-123-255-55-379 24-44 58-81 99-110v-943c0-49 20-95 53-128 71-71 186-71 257 0zm-60 1129c41 13 76 39 102 72 67 86 59 210-17 286-85 84-223 84-307 0-76-76-84-200-17-286 26-33 61-59 102-72v-596c0-18 8-35 20-48 1 0 1-1 2-1 44-42 115-9 115 49zm71 97c-24-30-57-53-95-63-9-1-16-10-16-19v-611c0-36-57-38-57 0v610c0 9-6 18-15 20-39 10-72 32-96 63-54 70-48 170 15 233 68 69 181 69 249 0 63-63 69-163 15-233zm-239-1197c-26 25-42 61-42 99v954c0 7-3 13-9 17-40 25-72 60-95 101-59 109-40 244 48 332 108 108 287 108 395 0 88-88 107-223 48-332-23-41-55-75-94-100-6-4-10-10-10-18v-954c0-38-16-74-42-99-55-56-144-56-199 0zm-510 521c-29-29-70-48-114-48-45 0-85 19-115 48-62 62-62 165 0 228 30 29 70 47 115 47 44 0 85-18 114-47 62-63 62-166 0-228z" fill="#1a1a1a" fill-rule="nonzero"/><path d="m666 831c62-63 62-166 0-228-29-29-70-48-114-48-45 0-85 19-115 48-62 62-62 165 0 228 30 29 70 47 115 47 44 0 85-18 114-47z" fill="#48e1ff"/><path d="m1415 1279c-24-30-57-53-95-63-9-1-16-10-16-19v-611c0-36-57-38-57 0v610c0 9-6 18-15 20-39 10-72 32-96 63-54 70-48 170 15 233 68 69 181 69 249 0 63-63 69-163 15-233z" fill="#48e1ff"/><path d="m1417 1135v-954c0-38-16-74-42-99-55-56-144-56-199 0-26 25-42 61-42 99v954c0 7-3 13-9 17-40 25-72 60-95 101-59 109-40 244 48 332 108 108 287 108 395 0 88-88 107-223 48-332-23-41-55-75-94-100-6-4-10-10-10-18zm-188-598c44-42 115-9 115 49v596c41 13 76 39 102 72 67 86 59 210-17 286-85 84-223 84-307 0-76-76-84-200-17-286 26-33 61-59 102-72v-596c0-18 8-35 20-48z" fill="#f3f3f3"/></g></svg>